# xmcd
#
# Track frame offsets:
#	150
#	17627
#	32022
#	50957
#	63964
#	84780
#	97507
#	113422
#	124657
#	149230
#	162392
#	178572
#	195407
#	211462
#	233257
#
# Disc length: 3338 seconds
#
# Revision: 1
# Processed by: cddbd v1.5.1PL0 Copyright (c) Steve Scherf et al.
# Submitted via: audiograbber 1.83.01
#
DISCID=ba0d080f
DTITLE=Sound Choice Spotlight Country Hits - Vol. 64 - SC8296
DYEAR=1900
DGENRE=
TTITLE0=Brooks and Dunn - If That's The Way You Want It
TTITLE1=Jackson, Alan - Tropical Depression
TTITLE2=Parton, Dolly - Full Circle
TTITLE3=Restless Heart - Maverick
TTITLE4=Davis, Stephanie - Moonlighter
TTITLE5=Gill, Vince - Pretty Words
TTITLE6=Montgomery, John Michael - Oh How She Shines
TTITLE7=Shelton, Ricky Van - Wear My Ring Around Your Neck
TTITLE8=Twitty, Conway and Sam Moore - Rainy Night In Georgia
TTITLE9=McBride, Martina and The Ride - Somebody Will
TTITLE10=Jones, George - Visit, The
TTITLE11=Travis, Randy - Wind In The Wire
TTITLE12=Milsap, Ronnie - Woman In Love, A
TTITLE13=Carpenter, Mary Chapin - Stones In The Road
TTITLE14=Cartwright, Lionel - Standing On The Promises
EXTD=
EXTT0=
EXTT1=
EXTT2=
EXTT3=
EXTT4=
EXTT5=
EXTT6=
EXTT7=
EXTT8=
EXTT9=
EXTT10=
EXTT11=
EXTT12=
EXTT13=
EXTT14=
PLAYORDER=
